<svg width="103" height="96" viewBox="0 0 103 96" fill="none" xmlns="http://www.w3.org/2000/svg">
<path d="M51.1999 4.00054C38.884 3.88321 27.0223 8.35497 18.2217 16.433C9.4211 24.5111 4.40168 35.5345 4.2666 47.0805C4.31406 56.2052 7.44503 65.081 13.2098 72.4331C18.9746 79.7852 27.0765 85.2353 36.3519 88.0005C38.6986 88.4005 39.5519 87.0805 39.5519 85.9205C39.5519 84.7605 39.5519 82.2005 39.5519 78.6005C26.4959 81.2005 23.7226 72.8405 23.7226 72.8405C22.8535 70.2161 21.0057 67.9727 18.5173 66.5205C14.2506 63.8805 18.8586 63.9205 18.8586 63.9205C20.3334 64.1054 21.7444 64.6009 22.9858 65.3698C24.2272 66.1388 25.2668 67.1612 26.0266 68.3605C27.3507 70.513 29.5233 72.0921 32.0768 72.7579C34.6303 73.4237 37.3605 73.123 39.6799 71.9205C39.9185 69.7301 40.9765 67.6895 42.6666 66.1605C32.2559 65.0805 21.3333 61.4005 21.3333 44.8805C21.2402 40.5713 22.9386 36.397 26.0693 33.2405C24.6435 29.5408 24.8118 25.4658 26.5386 21.8805C26.5386 21.8805 30.5066 20.7205 39.3386 26.2805C47.0267 24.3599 55.1172 24.3599 62.8053 26.2805C71.7653 20.7205 75.6053 21.8805 75.6053 21.8805C77.332 25.4658 77.5004 29.5408 76.0746 33.2405C79.278 36.3391 81.0685 40.4854 81.0666 44.8005C81.0666 61.3605 70.0586 65.0005 59.7333 66.0805C60.8639 67.1096 61.7372 68.3608 62.2905 69.744C62.8438 71.1273 63.0633 72.6083 62.9333 74.0805V85.8805C62.9333 85.8805 63.7866 88.4005 66.1333 87.9605C75.3824 85.1782 83.457 79.7268 89.204 72.3851C94.9509 65.0434 98.0761 56.1869 98.1333 47.0805C97.9982 35.5345 92.9788 24.5111 84.1781 16.433C75.3775 8.35497 63.5158 3.88321 51.1999 4.00054Z" fill="white"/>
</svg>
