<svg width="45" height="45" viewBox="0 0 45 45" fill="none" xmlns="http://www.w3.org/2000/svg">
<path d="M26.536 14.5898H30.0409C30.2274 14.5898 30.4062 14.5158 30.5381 14.3839C30.6699 14.252 30.744 14.0732 30.744 13.8867C30.744 13.7002 30.6699 13.5214 30.5381 13.3895C30.4062 13.2577 30.2274 13.1836 30.0409 13.1836H26.536C26.3495 13.1836 26.1707 13.2577 26.0388 13.3895C25.9069 13.5214 25.8329 13.7002 25.8329 13.8867C25.8329 14.0732 25.9069 14.252 26.0388 14.3839C26.1707 14.5158 26.3495 14.5898 26.536 14.5898ZM26.536 18.8965H34.8357C35.0221 18.8965 35.201 18.8224 35.3328 18.6905C35.4647 18.5587 35.5388 18.3798 35.5388 18.1934C35.5388 18.0069 35.4647 17.828 35.3328 17.6962C35.201 17.5643 35.0221 17.4902 34.8357 17.4902H26.536C26.3495 17.4902 26.1707 17.5643 26.0388 17.6962C25.9069 17.828 25.8329 18.0069 25.8329 18.1934C25.8329 18.3798 25.9069 18.5587 26.0388 18.6905C26.1707 18.8224 26.3495 18.8965 26.536 18.8965ZM26.536 23.2031H34.8357C35.0221 23.2031 35.201 23.129 35.3328 22.9972C35.4647 22.8653 35.5388 22.6865 35.5388 22.5C35.5388 22.3135 35.4647 22.1347 35.3328 22.0028C35.201 21.871 35.0221 21.7969 34.8357 21.7969H26.536C26.3495 21.7969 26.1707 21.871 26.0388 22.0028C25.9069 22.1347 25.8329 22.3135 25.8329 22.5C25.8329 22.6865 25.9069 22.8653 26.0388 22.9972C26.1707 23.129 26.3495 23.2031 26.536 23.2031ZM26.536 27.5098H34.8357C35.0221 27.5098 35.201 27.4357 35.3328 27.3038C35.4647 27.172 35.5388 26.9931 35.5388 26.8066C35.5388 26.6202 35.4647 26.4413 35.3328 26.3095C35.201 26.1776 35.0221 26.1035 34.8357 26.1035H26.536C26.3495 26.1035 26.1707 26.1776 26.0388 26.3095C25.9069 26.4413 25.8329 26.6202 25.8329 26.8066C25.8329 26.9931 25.9069 27.172 26.0388 27.3038C26.1707 27.4357 26.3495 27.5098 26.536 27.5098ZM10.1641 14.5898H13.6687C13.8552 14.5898 14.034 14.5158 14.1659 14.3839C14.2977 14.252 14.3718 14.0732 14.3718 13.8867C14.3718 13.7002 14.2977 13.5214 14.1659 13.3895C14.034 13.2577 13.8552 13.1836 13.6687 13.1836H10.1641C9.97758 13.1836 9.79874 13.2577 9.66688 13.3895C9.53502 13.5214 9.46094 13.7002 9.46094 13.8867C9.46094 14.0732 9.53502 14.252 9.66688 14.3839C9.79874 14.5158 9.97758 14.5898 10.1641 14.5898ZM10.1641 18.8965H18.4637C18.6502 18.8965 18.8291 18.8224 18.9609 18.6905C19.0928 18.5587 19.1669 18.3798 19.1669 18.1934C19.1669 18.0069 19.0928 17.828 18.9609 17.6962C18.8291 17.5643 18.6502 17.4902 18.4637 17.4902H10.1641C9.97758 17.4902 9.79874 17.5643 9.66688 17.6962C9.53502 17.828 9.46094 18.0069 9.46094 18.1934C9.46094 18.3798 9.53502 18.5587 9.66688 18.6905C9.79874 18.8224 9.97758 18.8965 10.1641 18.8965ZM10.1641 23.2031H18.4637C18.6502 23.2031 18.8291 23.129 18.9609 22.9972C19.0928 22.8653 19.1669 22.6865 19.1669 22.5C19.1669 22.3135 19.0928 22.1347 18.9609 22.0028C18.8291 21.871 18.6502 21.7969 18.4637 21.7969H10.1641C9.97758 21.7969 9.79874 21.871 9.66688 22.0028C9.53502 22.1347 9.46094 22.3135 9.46094 22.5C9.46094 22.6865 9.53502 22.8653 9.66688 22.9972C9.79874 23.129 9.97758 23.2031 10.1641 23.2031ZM10.1641 27.5098H18.4637C18.6502 27.5098 18.8291 27.4357 18.9609 27.3038C19.0928 27.172 19.1669 26.9931 19.1669 26.8066C19.1669 26.6202 19.0928 26.4413 18.9609 26.3095C18.8291 26.1776 18.6502 26.1035 18.4637 26.1035H10.1641C9.97758 26.1035 9.79874 26.1776 9.66688 26.3095C9.53502 26.4413 9.46094 26.6202 9.46094 26.8066C9.46094 26.9931 9.53502 27.172 9.66688 27.3038C9.79874 27.4357 9.97758 27.5098 10.1641 27.5098Z" fill="#665B86"/>
<path d="M42.498 11.4258H39.6387V10.7565C39.64 9.84247 39.2793 8.96513 38.6354 8.31641C37.9915 7.66769 37.1169 7.30041 36.2029 7.29492H27.2892C26.8872 7.29783 26.4889 7.3711 26.1123 7.5114L23.1961 8.57654C22.7466 8.74045 22.2539 8.74126 21.8039 8.57883L18.8877 7.51025C18.511 7.3703 18.1127 7.29742 17.7108 7.29492H8.79715C7.88314 7.30041 7.00851 7.66769 6.36462 8.31641C5.72073 8.96513 5.35999 9.84247 5.36133 10.7565V11.4258H2.50198C2.30915 11.4287 2.12472 11.5052 1.9864 11.6396C1.84807 11.774 1.76631 11.9561 1.75781 12.1488V36.9836C1.76638 37.1761 1.84822 37.358 1.98657 37.4922C2.12492 37.6263 2.30931 37.7025 2.50198 37.7051H42.498C42.6907 37.7025 42.8751 37.6263 43.0134 37.4922C43.1518 37.358 43.2336 37.1761 43.2422 36.9836V12.1488C43.2337 11.9561 43.1519 11.774 43.0136 11.6396C42.8753 11.5052 42.6908 11.4287 42.498 11.4258ZM26.593 8.83301C26.8156 8.74881 27.0512 8.7042 27.2892 8.70117H36.2029C36.744 8.70623 37.2612 8.92521 37.6415 9.3103C38.0217 9.69539 38.2342 10.2153 38.2324 10.7565V29.8232C38.2324 30.9463 37.3261 31.8164 36.2029 31.8164H27.2892C26.8866 31.8237 26.4884 31.9013 26.1125 32.0456L23.2031 33.126V10.0371C23.3641 10.0022 23.5224 9.95595 23.6768 9.89859L26.593 8.83301ZM6.76758 10.7565C6.76581 10.2153 6.97826 9.69539 7.35852 9.3103C7.73879 8.92521 8.25598 8.70623 8.79715 8.70117H17.7108C17.9488 8.70419 18.1844 8.74881 18.4069 8.83301L21.3232 9.89815C21.4776 9.95566 21.6359 10.0021 21.7969 10.0371V33.126L18.8877 32.0461C18.5118 31.9015 18.1135 31.8238 17.7108 31.8164H8.79715C7.67391 31.8164 6.76758 30.9463 6.76758 29.8232V10.7565ZM41.8359 36.2988H3.16406V12.832H5.36133V29.8232C5.36187 30.2726 5.45137 30.7173 5.62468 31.1319C5.79798 31.5465 6.05166 31.9226 6.37108 32.2387C6.6905 32.5547 7.06933 32.8044 7.48572 32.9733C7.90212 33.1421 8.34783 33.2269 8.79715 33.2227H17.7108C17.9495 33.2301 18.185 33.279 18.4069 33.3671L21.3233 34.4387C22.0823 34.719 22.9159 34.7219 23.6768 34.4469L26.593 33.3658C26.815 33.278 27.0505 33.2296 27.2892 33.2227H36.2029C36.6522 33.2269 37.0979 33.1421 37.5143 32.9733C37.9307 32.8044 38.3095 32.5547 38.6289 32.2387C38.9483 31.9226 39.202 31.5465 39.3753 31.1319C39.5486 30.7173 39.6381 30.2726 39.6387 29.8232V12.832H41.8359V36.2988Z" fill="#665B86"/>
</svg>
