<svg width="45" height="45" viewBox="0 0 45 45" fill="none" xmlns="http://www.w3.org/2000/svg">
<path d="M22.4989 2.8125C11.6266 2.8125 2.8125 11.6278 2.8125 22.5C2.8125 33.3734 11.6266 42.1875 22.4989 42.1875C33.3723 42.1875 42.1875 33.3734 42.1875 22.5C42.1875 11.6278 33.3723 2.8125 22.4989 2.8125ZM34.4321 34.4325C33.5561 35.3094 32.5869 36.0881 31.5417 36.7545L30.1402 34.327L28.9224 35.0301L30.3247 37.4591C28.1417 38.6043 25.7217 39.2569 23.2032 39.3596V36.5625H21.797V39.3596C19.2784 39.2571 16.8583 38.6046 14.6752 37.4594L16.0777 35.03L14.8599 34.3269L13.4582 36.7549C12.4129 36.0884 11.4436 35.3096 10.5675 34.4325C9.69045 33.5564 8.91174 32.5871 8.24528 31.5418L10.6732 30.1401L9.97005 28.9223L7.54066 30.3249C6.39545 28.1418 5.74295 25.7217 5.64038 23.2031H8.4375V21.7969H5.64038C5.74295 19.2784 6.39554 16.8583 7.54084 14.6752L9.96996 16.0777L10.6731 14.8599L8.24528 13.4583C8.91173 12.4132 9.69034 11.444 10.5673 10.568C11.4434 9.69079 12.4127 8.91197 13.458 8.24537L14.8598 10.6733L16.0776 9.97014L14.675 7.54084C16.8583 6.39536 19.2784 5.74277 21.7969 5.64038V8.4375H23.2031V5.64047C25.7215 5.74321 28.1415 6.39589 30.3246 7.54119L28.9223 9.96996L30.1402 10.6731L31.5416 8.24572C32.5867 8.91223 33.5559 9.6909 34.4319 10.5679C35.3091 11.4439 36.0878 12.4131 36.7544 13.4583L34.3269 14.8598L35.03 16.0777L37.459 14.6753C38.6043 16.8584 39.257 19.2784 39.3595 21.7968H36.5625V23.203H39.3595C39.257 25.7215 38.6044 28.1415 37.4592 30.3246L35.0301 28.9222L34.327 30.14L36.7546 31.5416C36.0881 32.5869 35.3093 33.5563 34.4321 34.4325Z" fill="#665B86"/>
<path d="M35.1562 21.1816H24.9845C24.7365 20.7159 24.3629 20.329 23.9062 20.0647V14.0625H21.0938V20.0647C20.2533 20.5511 19.6875 21.4592 19.6875 22.5C19.6875 24.0533 20.9467 25.3125 22.5 25.3125C23.5042 25.3125 24.3847 24.7859 24.8824 23.9941H35.1562V21.1816Z" fill="#665B86"/>
</svg>
