<svg width="45" height="45" viewBox="0 0 45 45" fill="none" xmlns="http://www.w3.org/2000/svg">
<path d="M35.625 3.75H9.375C7.88316 3.75 6.45242 4.34263 5.39752 5.39752C4.34263 6.45242 3.75 7.88316 3.75 9.375V35.625C3.75 37.1168 4.34263 38.5476 5.39752 39.6025C6.45242 40.6574 7.88316 41.25 9.375 41.25H35.625C35.9334 41.2457 36.2408 41.2143 36.5438 41.1562L37.1063 41.025H37.2375H37.3313L38.025 40.7625L38.2688 40.6312C38.4563 40.5187 38.6625 40.425 38.85 40.2938C39.1004 40.1095 39.3384 39.9091 39.5625 39.6937L39.6938 39.525C39.8778 39.3385 40.0471 39.1378 40.2 38.925L40.3688 38.6812C40.4997 38.4725 40.6126 38.253 40.7063 38.025C40.7577 37.935 40.8016 37.841 40.8375 37.7437C40.9313 37.5187 40.9875 37.275 41.0625 37.0312V36.75C41.1688 36.3836 41.2317 36.006 41.25 35.625V9.375C41.25 7.88316 40.6574 6.45242 39.6025 5.39752C38.5476 4.34263 37.1168 3.75 35.625 3.75ZM9.375 37.5C8.87772 37.5 8.40081 37.3025 8.04918 36.9508C7.69755 36.5992 7.5 36.1223 7.5 35.625V27.5437L13.6688 21.3563C13.8431 21.1805 14.0504 21.041 14.2789 20.9458C14.5074 20.8506 14.7525 20.8016 15 20.8016C15.2475 20.8016 15.4926 20.8506 15.7211 20.9458C15.9496 21.041 16.1569 21.1805 16.3313 21.3563L32.4563 37.5H9.375ZM37.5 35.625C37.4982 35.8562 37.4537 36.085 37.3688 36.3C37.3259 36.3914 37.2757 36.4792 37.2188 36.5625C37.1686 36.6419 37.1122 36.7171 37.05 36.7875L27.0188 26.7563L28.6688 25.1063C28.8431 24.9305 29.0504 24.791 29.2789 24.6958C29.5074 24.6006 29.7525 24.5516 30 24.5516C30.2475 24.5516 30.4926 24.6006 30.7211 24.6958C30.9496 24.791 31.1569 24.9305 31.3313 25.1063L37.5 31.2938V35.625ZM37.5 25.9875L33.975 22.5C32.902 21.4819 31.4792 20.9143 30 20.9143C28.5208 20.9143 27.098 21.4819 26.025 22.5L24.375 24.15L18.975 18.75C17.902 17.7319 16.4792 17.1643 15 17.1643C13.5208 17.1643 12.098 17.7319 11.025 18.75L7.5 22.2375V9.375C7.5 8.87772 7.69755 8.40081 8.04918 8.04918C8.40081 7.69754 8.87772 7.5 9.375 7.5H35.625C36.1223 7.5 36.5992 7.69754 36.9508 8.04918C37.3025 8.40081 37.5 8.87772 37.5 9.375V25.9875ZM25.3125 11.25C24.7562 11.25 24.2125 11.415 23.75 11.724C23.2874 12.033 22.927 12.4723 22.7141 12.9862C22.5012 13.5001 22.4455 14.0656 22.554 14.6112C22.6626 15.1568 22.9304 15.6579 23.3238 16.0512C23.7171 16.4446 24.2182 16.7124 24.7638 16.821C25.3094 16.9295 25.8749 16.8738 26.3888 16.6609C26.9027 16.448 27.342 16.0876 27.651 15.625C27.9601 15.1625 28.125 14.6188 28.125 14.0625C28.125 13.3166 27.8287 12.6012 27.3012 12.0738C26.7738 11.5463 26.0584 11.25 25.3125 11.25Z" fill="white"/>
</svg>
