<svg width="23" height="22" viewBox="0 0 23 22" fill="none" xmlns="http://www.w3.org/2000/svg">
<path d="M11.5 8.375C10.7375 8.375 10.0063 8.65156 9.46711 9.14384C8.92794 9.63613 8.62504 10.3038 8.62504 11C8.62504 11.6962 8.92794 12.3639 9.46711 12.8562C10.0063 13.3484 10.7375 13.625 11.5 13.625C12.2625 13.625 12.9938 13.3484 13.533 12.8562C14.0721 12.3639 14.375 11.6962 14.375 11C14.375 10.3038 14.0721 9.63613 13.533 9.14384C12.9938 8.65156 12.2625 8.375 11.5 8.375ZM11.5 15.375C10.2292 15.375 9.01043 14.9141 8.11182 14.0936C7.21321 13.2731 6.70838 12.1603 6.70838 11C6.70838 9.83968 7.21321 8.72688 8.11182 7.90641C9.01043 7.08594 10.2292 6.625 11.5 6.625C12.7709 6.625 13.9897 7.08594 14.8883 7.90641C15.7869 8.72688 16.2917 9.83968 16.2917 11C16.2917 12.1603 15.7869 13.2731 14.8883 14.0936C13.9897 14.9141 12.7709 15.375 11.5 15.375ZM11.5 4.4375C6.70838 4.4375 2.61629 7.15875 0.958374 11C2.61629 14.8412 6.70838 17.5625 11.5 17.5625C16.2917 17.5625 20.3838 14.8412 22.0417 11C20.3838 7.15875 16.2917 4.4375 11.5 4.4375Z" fill="#ACACAE"/>
</svg>
