<svg width="224" height="193" viewBox="0 0 224 193" fill="none" xmlns="http://www.w3.org/2000/svg">
<path d="M178.196 99.4542C178.196 99.0833 178.273 98.7125 178.273 98.3417C178.273 78.2549 158.204 62 133.447 62C115.586 62 100.244 70.4674 93.0376 82.7049C89.8994 81.4378 86.3738 80.6962 82.6544 80.6962C71.2251 80.6962 61.6942 87.4639 59.8732 96.3021C46.158 100.072 36.356 110.548 36.356 122.878C36.356 138.392 51.8921 151 71.0313 151H110.743V126.278H92.069L123.141 100.412L154.214 126.247H135.539V150.969H178.273C195.785 150.969 209.927 139.381 209.927 125.196C209.927 111.012 195.708 99.4851 178.196 99.4542Z" fill="#665B86"/>
</svg>
